# xmcd
#
# Track frame offsets:
#	150
#	14464
#	27976
#	42985
#	58699
#	70059
#	84488
#	99504
#	110106
#	125716
#
# Disc length: 1860 seconds
#
# Revision: 0
# Processed by: cddbd v1.5.2PL0 Copyright (c) Steve Scherf et al.
# Submitted via: EasyCDDAExtractor 10.2.0.1
#
DISCID=8807420a
DTITLE=Billy Fields - One Stone At A Time
DYEAR=1900
DGENRE=Gospel
TTITLE0=One Stone At A Time
TTITLE1=The Second Hand Rose
TTITLE2=All About Him
TTITLE3=Gone Away With A Friend
TTITLE4=Calvary Teaches Me Love
TTITLE5=The Lamb Is Within
TTITLE6=There's Always A Rose
TTITLE7=The Blood Will Secure
TTITLE8=The Picture Just Said Love
TTITLE9=Longing For Garments Of White
EXTD=
EXTT0=
EXTT1=
EXTT2=
EXTT3=
EXTT4=
EXTT5=
EXTT6=
EXTT7=
EXTT8=
EXTT9=
PLAYORDER=
